<svg width="445" height="80" viewBox="0 0 445 80" fill="none" xmlns="http://www.w3.org/2000/svg">
<path d="M416.601 24.1516L401.318 68.9717C399.53 74.2232 394.606 77.7425 389.044 77.7425C383.117 77.7425 377.955 73.7309 376.496 67.9871L371.517 48.531L366.538 67.9871C365.079 73.7309 359.9 77.7425 353.991 77.7425C348.447 77.7425 343.522 74.2232 341.717 68.9717L326.434 24.1516H347.553L354.812 51.9955L362.161 24.1516H381.293L388.752 52.1961L392.637 37.2074C394.625 29.5125 401.555 24.1516 409.507 24.1516H416.619H416.601Z" fill="white"/>
<path d="M58.0656 24.1516V77.7425H39.1531V74.3873C35.469 77.3231 30.9643 79.0188 25.6936 79.0188C11.1946 79.0188 0.361328 66.9294 0.361328 50.9744C0.361328 35.0193 11.1763 22.9299 25.6936 22.9299C30.9461 22.9299 35.469 24.6075 39.1531 27.5614V24.2063H58.0656V24.1516ZM39.1531 50.9379C39.1531 45.3764 35.0495 41.1643 29.487 41.1643C23.9244 41.1643 19.821 45.3582 19.821 50.9379C19.821 56.5176 23.9244 60.7116 29.487 60.7116C35.0495 60.7116 39.1531 56.4994 39.1531 50.9379Z" fill="white"/>
<path d="M121.77 42.5319V77.7242H102.857V48.9321C102.857 44.2094 100.012 41.1643 95.5071 41.1643C91.0024 41.1643 87.519 44.3188 87.519 49.1509V77.7242H68.6064V24.1334H87.519V28.1267C91.5131 24.6622 96.3461 22.8752 102.018 22.8752C113.891 22.8752 121.77 30.6431 121.77 42.5319Z" fill="white"/>
<path d="M224.066 23.4039V24.1332H235.209V41.3648H224.066V77.7241H205.153V41.3648H198.004V24.1332H205.153V22.1457C205.153 9.96515 211.245 0.811523 225.853 0.811523C230.048 0.811523 233.312 1.54087 236.577 3.23667V19.83C234.68 18.6812 232.473 18.043 230.157 18.043C225.962 18.043 224.066 20.2493 224.066 23.4039Z" fill="white"/>
<path d="M242.888 2.08789H261.8V77.7424H242.888V2.08789Z" fill="white"/>
<path d="M269.259 50.9378C269.259 34.9645 281.77 22.8933 298.366 22.8933C314.963 22.8933 327.474 34.9827 327.474 50.9378C327.474 66.8929 314.963 78.9823 298.366 78.9823C281.77 78.9823 269.259 66.8929 269.259 50.9378ZM308.032 50.9378C308.032 45.3763 303.929 41.1642 298.366 41.1642C292.804 41.1642 288.7 45.3581 288.7 50.9378C288.7 56.5175 292.804 60.7114 298.366 60.7114C303.929 60.7114 308.032 56.4993 308.032 50.9378Z" fill="white"/>
<path d="M166.835 48.1301H146.008V77.7245H166.835V48.1301Z" fill="white"/>
<path d="M167.018 24.1516L161.966 32.9041C160.288 35.8034 157.534 36.1134 156.422 36.1134C155.309 36.1134 152.537 35.8034 150.877 32.9041L145.825 24.1516H121.788L132.858 43.316C137.782 51.8314 146.591 56.937 156.44 56.937C166.288 56.937 175.097 51.8496 180.021 43.316L191.092 24.1516H167.054H167.018Z" fill="white"/>
<path d="M408.523 24.1516H427.435L420.815 41.1461L391.78 40.5443L392.893 36.2775C394.735 29.1478 401.173 24.1699 408.541 24.1699L408.523 24.1516Z" fill="white"/>
<path d="M434.767 24.1516L428.22 40.982L437.904 41.1461L444.524 24.1516H434.767Z" fill="#E83664"/>
</svg>
