<svg width="121" height="125" viewBox="0 0 121 125" fill="none" xmlns="http://www.w3.org/2000/svg">
<path d="M96.9642 2.88358C93.3533 0.209302 88.4476 0.154726 84.782 2.75624L60.5456 19.8935L35.9262 1.99216C32.2971 -0.645736 27.4097 -0.663926 23.7624 1.93758L4.48625 15.6364C1.67781 17.6376 0 20.8758 0 24.3324V98.9393C0 102.323 1.60481 105.489 4.32207 107.508L24.0358 122.098C27.6467 124.772 32.5523 124.827 36.2179 122.226L60.4544 105.107L85.0739 123.008C88.7029 125.646 93.5903 125.664 97.2376 123.062L116.477 109.309C119.286 107.308 120.945 104.088 120.945 100.649L121 26.0607C121 22.6769 119.395 19.4932 116.678 17.4921L96.9642 2.90178V2.88358ZM30.3458 117.623L30.6193 83.3848L54.3816 100.649L30.364 117.623H30.3458ZM29.8169 7.74096L86.0039 48.5828L98.1312 57.388L98.2589 41.6333L98.4777 14.2538L113.176 25.1147V90.2798L14.1699 18.9293L29.8169 7.74096Z" fill="#101017"/>
</svg>
