<svg width="32" height="32" viewBox="0 0 32 32" fill="none" xmlns="http://www.w3.org/2000/svg">
<path d="M19.6059 14.6625L21.956 10.6748L28.2904 20.5406L28.2933 22.4341L28.2727 9.40512C28.2577 9.08653 28.0886 8.79512 27.8188 8.62322L16.4145 2.06357C16.1479 1.93243 15.8094 1.934 15.5432 2.0677C15.5072 2.08582 15.4735 2.10531 15.4412 2.12677L15.4015 2.15178L4.33173 8.56651L4.2888 8.5862C4.23347 8.61141 4.17775 8.6439 4.12517 8.68131C3.91528 8.83174 3.77587 9.05444 3.73078 9.30392C3.72408 9.34172 3.71896 9.38032 3.7168 9.4193L3.73412 20.0366L9.63434 10.8917C10.3771 9.67922 11.9956 9.28836 13.4982 9.30982L15.2615 9.35629L4.87144 26.0189L6.09618 26.724L16.6106 9.37323L21.2582 9.35629L10.7709 27.145L15.1412 29.6588L15.6633 29.9589C15.8843 30.0487 16.1446 30.0532 16.3673 29.9727L27.9318 23.2709L25.7208 24.5521L19.6059 14.6625ZM20.5024 27.5764L16.0885 20.6483L18.7831 16.0758L24.5801 25.2132L20.5024 27.5764Z" fill="#2D374B"/>
<path d="M16.0869 20.6482L20.5011 27.5761L24.5786 25.213L18.7815 16.0757L16.0869 20.6482Z" fill="#28A0F0"/>
<path d="M28.2929 22.4341L28.2899 20.5407L21.9555 10.6748L19.6055 14.6625L25.7205 24.5522L27.9315 23.2709C28.1483 23.0949 28.2797 22.8364 28.2934 22.5575L28.2929 22.4341Z" fill="#28A0F0"/>
<path d="M1.74902 24.2193L4.87132 26.0185L15.2613 9.35588L13.4981 9.30941C11.9957 9.28814 10.3771 9.6788 9.63422 10.8913L3.73401 20.0361L1.74902 23.086V24.2193Z" fill="white"/>
<path d="M21.2577 9.35596L16.6102 9.37289L6.0957 26.7236L9.77091 28.8396L10.7702 27.1446L21.2577 9.35596Z" fill="white"/>
<path d="M30.2516 9.33205C30.2128 8.36014 29.6865 7.47053 28.8623 6.95247L17.3085 0.308154C16.4932 -0.10239 15.4746 -0.10298 14.6576 0.307957C14.5611 0.356593 3.42192 6.817 3.42192 6.817C3.26774 6.89084 3.11928 6.97886 2.97967 7.07888C2.24384 7.60639 1.7953 8.4259 1.74902 9.32615V23.0864L3.73401 20.0365L3.71668 9.41908C3.71904 9.38029 3.72397 9.3419 3.73066 9.30429C3.77555 9.05442 3.91516 8.83172 4.12506 8.68109C4.17763 8.64368 15.5069 2.0856 15.5429 2.06749C15.8093 1.93379 16.1476 1.93222 16.4142 2.06335L27.8185 8.623C28.0882 8.7949 28.2574 9.08632 28.2723 9.40491V22.5571C28.2585 22.8359 28.1483 23.0944 27.9315 23.2705L25.7205 24.5517L24.5796 25.2129L20.5021 27.576L16.3669 29.9723C16.1442 30.0528 15.8837 30.0483 15.663 29.9585L10.7706 27.1446L9.77107 28.8395L14.1679 31.3709C14.3132 31.4536 14.4428 31.5268 14.5491 31.5867C14.7137 31.679 14.826 31.7407 14.8656 31.76C15.178 31.9118 15.6276 32 16.0328 32C16.4042 32 16.7665 31.9319 17.1093 31.7976L29.1202 24.842C29.8096 24.3078 30.2152 23.5022 30.2516 22.6297V9.33205Z" fill="#96BEDC"/>
</svg>
