<svg width="32" height="32" viewBox="0 0 32 32" fill="none" xmlns="http://www.w3.org/2000/svg">
<g clip-path="url(#clip0_2485_320)">
<path d="M16 0C24.8333 0 32 7.16667 32 16C32 24.8333 24.8333 32 16 32C7.16667 32 0 24.8333 0 16C0 7.16667 7.16667 0 16 0Z" fill="#70D44B"/>
<path d="M16.0003 6.53333C16.8447 6.53333 17.6114 7.01111 17.9892 7.76667L24.2336 20.2667C24.778 21.3667 24.3336 22.7 23.2336 23.2444C22.9225 23.4 22.5892 23.4778 22.2447 23.4778H9.75582C8.5336 23.4778 7.5336 22.4778 7.5336 21.2556C7.5336 20.9111 7.61138 20.5667 7.76693 20.2667L14.0114 7.76667C14.3892 7 15.1558 6.52222 16.0003 6.53333ZM16.0003 5C14.578 5 13.278 5.8 12.6447 7.07778L6.40027 19.5778C5.47805 21.4333 6.22249 23.6778 8.07805 24.6111C8.60027 24.8667 9.17805 25.0111 9.75582 25.0111H22.2558C24.3225 25.0111 26.0114 23.3333 26.0114 21.2667C26.0114 20.6889 25.878 20.1111 25.6114 19.5889L19.3558 7.07778C18.7225 5.8 17.4225 5 16.0003 5Z" fill="white"/>
</g>
<defs>
<clipPath id="clip0_2485_320">
<rect width="32" height="32" fill="white"/>
</clipPath>
</defs>
</svg>
