<svg width="32" height="32" viewBox="0 0 32 32" fill="none" xmlns="http://www.w3.org/2000/svg">
<g clip-path="url(#clip0_2481_271)">
<path d="M25.8511 5.48926H6.10645V23.4467H25.8511V5.48926Z" fill="white"/>
<path fill-rule="evenodd" clip-rule="evenodd" d="M31.9682 16.0002C31.9682 24.8251 24.8144 31.9789 15.9895 31.9789C7.16466 31.9789 0.0107422 24.8251 0.0107422 16.0002C0.0107422 7.1754 7.16466 0.0214844 15.9895 0.0214844C24.8144 0.0214844 31.9682 7.1754 31.9682 16.0002ZM11.4615 22.3589H8.36053C7.70891 22.3589 7.38704 22.3589 7.19078 22.2334C6.97881 22.0959 6.84927 21.8683 6.83357 21.617C6.82178 21.3855 6.98274 21.1028 7.30461 20.5375L14.9614 7.04138C15.2872 6.46827 15.4521 6.18172 15.6601 6.07574C15.8839 5.96191 16.1508 5.96191 16.3745 6.07574C16.5826 6.18172 16.7475 6.46827 17.0733 7.04138L18.6473 9.78912L18.6554 9.80314C19.0073 10.418 19.1857 10.7298 19.2636 11.057C19.35 11.4142 19.35 11.791 19.2636 12.1482C19.1851 12.478 19.0085 12.792 18.6513 13.4161L14.6293 20.5258L14.6189 20.544C14.2647 21.1639 14.0852 21.4781 13.8364 21.7151C13.5656 21.9742 13.2397 22.1625 12.8825 22.2687C12.5567 22.3589 12.1917 22.3589 11.4615 22.3589ZM19.2927 22.3589H23.7361C24.3916 22.3589 24.7214 22.3589 24.9178 22.2296C25.1297 22.0921 25.2631 21.8604 25.275 21.6094C25.2863 21.3853 25.1288 21.1136 24.8203 20.5812C24.8097 20.5631 24.799 20.5446 24.7882 20.5259L22.5624 16.7183L22.5371 16.6754C22.2244 16.1465 22.0665 15.8794 21.8637 15.7762C21.6401 15.6624 21.3769 15.6624 21.1533 15.7762C20.9491 15.8822 20.7843 16.1609 20.4585 16.7222L18.2407 20.5298L18.2331 20.5429C17.9084 21.1033 17.7461 21.3834 17.7578 21.6132C17.7736 21.8645 17.9031 22.0959 18.115 22.2334C18.3074 22.3589 18.6371 22.3589 19.2927 22.3589Z" fill="#E84142"/>
</g>
<defs>
<clipPath id="clip0_2481_271">
<rect width="31.9787" height="32" fill="white"/>
</clipPath>
</defs>
</svg>
