<svg width="32" height="32" viewBox="0 0 32 32" fill="none" xmlns="http://www.w3.org/2000/svg">
<circle cx="16" cy="16" r="16" fill="#E8E7E6"/>
<path d="M12.0735 17.3191C12.6432 17.3191 13.1672 17.1272 13.5877 16.8042L10.1145 13.3311C9.7885 13.7484 9.59961 14.2755 9.59961 14.8452C9.59961 16.2071 10.7086 17.3191 12.0735 17.3191Z" fill="#041427"/>
<path d="M22.3982 14.8423C22.3982 14.2726 22.2063 13.7486 21.8833 13.3281L18.4102 16.7983C18.8275 17.1242 19.3546 17.3131 19.9243 17.3131C21.2892 17.3192 22.3982 16.2072 22.3982 14.8423Z" fill="#041427"/>
<path d="M24.1471 11.061L22.6116 12.5965C23.1204 13.2059 23.425 13.9858 23.425 14.8389C23.425 16.7704 21.853 18.3425 19.9214 18.3425C19.0714 18.3425 18.2884 18.0348 17.6791 17.5291L15.9973 19.2108L14.3156 17.5291C13.7062 18.0379 12.9263 18.3425 12.0732 18.3425C10.1417 18.3425 8.56961 16.7704 8.56961 14.8389C8.56961 13.9889 8.87732 13.2059 9.38306 12.5965L8.59703 11.8105L7.8506 11.0641C6.97926 12.5051 6.47656 14.193 6.47656 15.9996C6.47656 21.2582 10.7388 25.5235 16.0004 25.5235C21.2619 25.5235 25.5242 21.2612 25.5242 15.9996C25.5211 14.1899 25.0184 12.5051 24.1471 11.061Z" fill="#041427"/>
<path d="M22.8855 9.42523C21.1551 7.60943 18.7056 6.47607 15.9971 6.47607C13.2886 6.47607 10.8391 7.60943 9.10862 9.42523C8.87403 9.67505 8.65162 9.93402 8.44141 10.2052L15.9971 17.7669L23.5528 10.2052C23.3486 9.93097 23.1232 9.67505 22.8855 9.42523ZM15.9971 7.72215C18.2272 7.72215 20.2959 8.58131 21.8527 10.1473L15.9971 16.0029L10.1414 10.1473C11.6983 8.57826 13.77 7.72215 15.9971 7.72215Z" fill="#041427"/>
</svg>
