<svg width="32" height="32" viewBox="0 0 32 32" fill="none" xmlns="http://www.w3.org/2000/svg">
<circle cx="16" cy="16" r="16" fill="white"/>
<g clip-path="url(#clip0_2485_275)">
<path d="M20.9869 12.723C20.6366 12.5229 20.1863 12.5229 19.786 12.723L16.984 14.3742L15.0827 15.4249L12.3307 17.0761C11.9805 17.2762 11.5302 17.2762 11.1299 17.0761L8.97834 15.7752C8.62809 15.575 8.37791 15.1747 8.37791 14.7244V12.2226C8.37791 11.8224 8.57805 11.4221 8.97834 11.1719L11.1299 9.92101C11.4801 9.72086 11.9304 9.72086 12.3307 9.92101L14.4822 11.2219C14.8325 11.4221 15.0827 11.8224 15.0827 12.2727V13.9238L16.984 12.8231V11.1219C16.984 10.7216 16.7839 10.3213 16.3836 10.0711L12.3808 7.71944C12.0305 7.5193 11.5802 7.5193 11.1799 7.71944L7.07699 10.1211C6.6767 10.3213 6.47656 10.7216 6.47656 11.1219V15.8252C6.47656 16.2255 6.6767 16.6258 7.07699 16.8759L11.1299 19.2276C11.4801 19.4278 11.9304 19.4278 12.3307 19.2276L15.0827 17.6265L16.984 16.5257L19.736 14.9246C20.0862 14.7244 20.5365 14.7244 20.9368 14.9246L23.0884 16.1754C23.4386 16.3756 23.6888 16.7759 23.6888 17.2262V19.728C23.6888 20.1283 23.4886 20.5285 23.0884 20.7787L20.9869 22.0296C20.6366 22.2297 20.1863 22.2297 19.786 22.0296L17.6345 20.7787C17.2842 20.5786 17.0341 20.1783 17.0341 19.728V18.1268L15.1327 19.2276V20.8788C15.1327 21.2791 15.3329 21.6794 15.7331 21.9295L19.786 24.2812C20.1363 24.4813 20.5866 24.4813 20.9869 24.2812L25.0397 21.9295C25.39 21.7294 25.6402 21.3291 25.6402 20.8788V16.1254C25.6402 15.7251 25.44 15.3248 25.0397 15.0747L20.9869 12.723Z" fill="#8247E5"/>
</g>
<defs>
<clipPath id="clip0_2485_275">
<rect width="19.2136" height="16.7619" fill="white" transform="translate(6.47656 7.61914)"/>
</clipPath>
</defs>
</svg>
