<svg version="1.0" xmlns="http://www.w3.org/2000/svg"
 width="461.000000pt" height="128.000000pt" viewBox="0 0 461.000000 128.000000"
 preserveAspectRatio="xMidYMid meet">

<g transform="translate(0.000000,128.000000) scale(0.100000,-0.100000)"
fill="#000000" stroke="none">
<path d="M2270 1049 c-79 -24 -123 -80 -136 -177 -6 -51 -7 -52 -40 -52 l-34
0 0 -80 0 -80 35 0 35 0 0 -180 0 -180 95 0 95 0 0 180 0 180 55 0 55 0 0 80
0 80 -56 0 c-51 0 -55 2 -52 22 5 34 50 55 88 41 l30 -11 0 83 c0 60 -4 84
-13 88 -31 12 -125 15 -157 6z"/>
<path d="M2510 675 l0 -375 95 0 95 0 0 375 0 375 -95 0 -95 0 0 -375z"/>
<path d="M310 831 c-151 -32 -235 -200 -185 -368 18 -59 79 -133 131 -158 54
-25 153 -24 199 3 28 17 35 18 35 7 0 -12 18 -15 95 -15 l95 0 0 260 0 260
-94 0 c-61 0 -96 -4 -98 -11 -3 -8 -13 -7 -35 4 -39 21 -97 28 -143 18z m158
-206 c47 -54 18 -143 -52 -161 -77 -19 -142 73 -102 145 31 56 111 64 154 16z"/>
<path d="M1060 831 c-14 -5 -40 -16 -58 -25 -28 -14 -32 -15 -32 -1 0 12 -17
15 -95 15 l-95 0 0 -260 0 -260 95 0 95 0 0 154 c0 132 3 157 18 175 26 32 72
37 105 11 l27 -21 0 -160 0 -159 95 0 95 0 0 183 c0 100 -5 199 -11 220 -26
96 -142 157 -239 128z"/>
<path d="M2993 830 c-142 -29 -231 -145 -221 -287 11 -156 123 -256 283 -256
166 0 285 114 285 273 0 178 -165 307 -347 270z m135 -205 c47 -54 18 -143
-52 -161 -77 -19 -142 73 -102 145 31 56 111 64 154 16z"/>
<path d="M4097 816 c-73 -26 -98 -63 -123 -180 -10 -42 -21 -76 -26 -76 -4 0
-8 5 -8 12 0 6 -14 65 -31 130 l-32 119 -96 -3 -96 -3 -34 -128 c-19 -70 -36
-126 -38 -123 -3 2 -19 60 -36 128 l-32 123 -102 3 c-57 1 -103 0 -103 -3 0
-3 34 -105 75 -228 66 -194 80 -226 110 -254 27 -26 43 -33 75 -33 88 0 121
40 156 193 10 42 21 77 24 77 3 0 14 -35 24 -77 35 -153 68 -193 156 -193 70
0 100 39 158 210 l50 145 50 3 51 3 29 77 29 77 -56 6 c-89 11 -133 9 -174 -5z"/>
<path d="M1324 805 c13 -36 110 -192 134 -218 15 -16 42 -37 60 -49 l32 -20 0
-114 0 -114 105 0 105 0 0 119 c0 106 2 120 18 125 32 10 89 75 132 149 24 39
51 87 62 105 l20 32 -119 0 -119 0 -29 -50 c-47 -81 -93 -82 -144 -2 l-34 52
-114 0 c-99 0 -114 -2 -109 -15z"/>
<path d="M4373 740 l-31 -80 47 0 47 0 31 80 31 80 -47 0 -46 0 -32 -80z"/>
</g>
</svg>
