<svg width="17" height="20" viewBox="0 0 17 20" fill="none" xmlns="http://www.w3.org/2000/svg">
<path d="M6.82813 8.47049C6.28663 8.47049 5.85913 8.94549 5.85913 9.52499C5.85913 10.1045 6.29613 10.5795 6.82813 10.5795C7.36963 10.5795 7.79713 10.1045 7.79713 9.52499C7.80663 8.94549 7.36963 8.47049 6.82813 8.47049ZM10.2956 8.47049C9.75413 8.47049 9.32663 8.94549 9.32663 9.52499C9.32663 10.1045 9.76363 10.5795 10.2956 10.5795C10.8371 10.5795 11.2646 10.1045 11.2646 9.52499C11.2646 8.94549 10.8371 8.47049 10.2956 8.47049Z" fill="#5F6271"/>
<path d="M14.9126 0.5H2.18261C1.10911 0.5 0.235107 1.374 0.235107 2.457V15.301C0.235107 16.384 1.10911 17.258 2.18261 17.258H12.9556L12.4521 15.5005L13.6681 16.631L14.8176 17.695L16.8601 19.5V2.457C16.8601 1.374 15.9861 0.5 14.9126 0.5ZM11.2456 12.907C11.2456 12.907 10.9036 12.4985 10.6186 12.1375C11.8631 11.786 12.3381 11.007 12.3381 11.007C11.9486 11.2635 11.5781 11.444 11.2456 11.5675C10.7706 11.767 10.3146 11.9 9.86811 11.976C8.95611 12.147 8.12011 12.0995 7.40761 11.9665C6.86611 11.862 6.40061 11.71 6.01111 11.558C5.79261 11.4725 5.55511 11.368 5.31761 11.235C5.28911 11.216 5.26061 11.2065 5.23211 11.1875C5.21311 11.178 5.20361 11.1685 5.19411 11.159C5.02311 11.064 4.92811 10.9975 4.92811 10.9975C4.92811 10.9975 5.38411 11.7575 6.59061 12.1185C6.30561 12.4795 5.95411 12.907 5.95411 12.907C3.85461 12.8405 3.05661 11.463 3.05661 11.463C3.05661 8.404 4.42461 5.9245 4.42461 5.9245C5.79261 4.8985 7.09411 4.927 7.09411 4.927L7.18911 5.041C5.47911 5.535 4.69061 6.2855 4.69061 6.2855C4.69061 6.2855 4.89961 6.1715 5.25111 6.01C6.26761 5.5635 7.07511 5.44 7.40761 5.4115C7.46461 5.402 7.51211 5.3925 7.56911 5.3925C8.14861 5.3165 8.80411 5.2975 9.48811 5.3735C10.3906 5.478 11.3596 5.744 12.3476 6.2855C12.3476 6.2855 11.5971 5.573 9.98211 5.079L10.1151 4.927C10.1151 4.927 11.4166 4.8985 12.7846 5.9245C12.7846 5.9245 14.1526 8.404 14.1526 11.463C14.1526 11.463 13.3451 12.8405 11.2456 12.907Z" fill="#5F6271"/>
</svg>
