<svg width="62" height="13" viewBox="0 0 62 13" fill="none" xmlns="http://www.w3.org/2000/svg">
<path d="M7.49906 4.9061L6.13709 0.480469H5.76586L4.52441 4.91335L5.94183 4.49128L7.49906 4.9061Z" fill="white"/>
<path d="M4.51709 7.88951L5.88147 12.3152H6.25029L7.49173 7.87988L6.07432 8.30436L4.51709 7.88951Z" fill="white"/>
<path d="M7.50378 7.88477L11.9248 6.5221V6.15068L7.49414 4.91101L7.91599 6.32915L7.50378 7.88477Z" fill="white"/>
<path d="M4.51715 4.91101L0.09375 6.27368V6.64511L4.52438 7.88477L4.10253 6.46664L4.51715 4.91101Z" fill="white"/>
<path d="M38.7687 2.91882H37.5225V9.87201H38.7687V2.91882Z" fill="white"/>
<path d="M33.0364 5.94079H28.0466V2.91882H26.8003V9.87201H28.0466V7.18529H33.0364V9.87201H34.2803V2.91882H33.0364V5.94079Z" fill="white"/>
<path d="M58.9962 2.91884H55.3924C54.8105 2.92012 54.253 3.15211 53.8418 3.56395C53.4306 3.97579 53.1994 4.53388 53.1987 5.11598V9.87689H54.4426V7.18532H59.9604V9.87689H61.2042V5.11598C61.2039 4.82652 61.1465 4.53998 61.0353 4.27277C60.9241 4.00556 60.7612 3.76295 60.5561 3.55883C60.3509 3.35471 60.1076 3.19309 59.8399 3.08327C59.5722 2.97345 59.2855 2.91757 58.9962 2.91884ZM54.4426 5.93841V5.11598C54.4463 4.86513 54.5476 4.62561 54.7249 4.44821C54.9022 4.27081 55.1416 4.16949 55.3924 4.16575H58.9962C59.2469 4.16949 59.4863 4.27081 59.6636 4.44821C59.8409 4.62561 59.9422 4.86513 59.9459 5.11598V5.93841H54.4426Z" fill="white"/>
<path d="M23.4234 2.91882L20.5138 5.94079H17.8405V2.91882H16.5942V9.87201H17.8405V7.18529H20.6488L23.2185 9.85273H24.8167L21.5793 6.4931L25.0216 2.91882H23.4234Z" fill="white"/>
<path d="M41.992 4.16569H48.9706V4.4503C48.969 4.55757 48.934 4.66167 48.8705 4.74812C48.807 4.83457 48.7181 4.89908 48.6163 4.93265L43.1274 6.73909C42.7945 6.84771 42.5045 7.05911 42.2992 7.34295C42.0939 7.62678 41.9839 7.96843 41.9848 8.31879V9.34622V9.86476H50.1108V8.62027H43.1202V8.32604C43.1215 8.21867 43.1563 8.11441 43.2199 8.02789C43.2834 7.94137 43.3725 7.87694 43.4745 7.84368L48.9634 6.03725C49.2959 5.92797 49.5855 5.71637 49.7907 5.43268C49.9958 5.14899 50.1062 4.80769 50.106 4.45751V4.17293V2.92603H41.98L41.992 4.16569Z" fill="white"/>
</svg>
