<svg width="148" height="26" viewBox="0 0 148 26" fill="none" xmlns="http://www.w3.org/2000/svg">
<path d="M138.548 7.7594L133.467 22.6598C132.873 24.4057 131.236 25.5757 129.387 25.5757C127.416 25.5757 125.7 24.242 125.215 22.3325L123.56 15.8643L121.905 22.3325C121.42 24.242 119.698 25.5757 117.733 25.5757C115.89 25.5757 114.253 24.4057 113.653 22.6598L108.572 7.7594H115.593L118.006 17.0161L120.449 7.7594H126.81L129.289 17.0828L130.581 12.0998C131.242 9.54163 133.546 7.7594 136.189 7.7594H138.554H138.548Z" fill="white"/>
<path d="M19.3528 7.75942V25.5757H13.0654V24.4603C11.8406 25.4363 10.343 26 8.59077 26C3.77058 26 0.169067 21.9809 0.169067 16.6766C0.169067 11.3724 3.76452 7.35327 8.59077 7.35327C10.337 7.35327 11.8406 7.91096 13.0654 8.89301V7.7776H19.3528V7.75942ZM13.0654 16.6645C13.0654 14.8156 11.7011 13.4153 9.85188 13.4153C8.00262 13.4153 6.63842 14.8095 6.63842 16.6645C6.63842 18.5195 8.00262 19.9138 9.85188 19.9138C11.7011 19.9138 13.0654 18.5134 13.0654 16.6645Z" fill="white"/>
<path d="M40.5312 13.8699V25.5696H34.2438V15.9977C34.2438 14.4276 33.2979 13.4153 31.8003 13.4153C30.3027 13.4153 29.1446 14.464 29.1446 16.0704V25.5696H22.8572V7.75331H29.1446V9.0809C30.4725 7.92911 32.0792 7.33505 33.9648 7.33505C37.9119 7.33505 40.5312 9.91747 40.5312 13.8699Z" fill="white"/>
<path d="M74.5395 7.51082V7.7533H78.2441V13.4819H74.5395V25.5696H68.252V13.4819H65.8752V7.7533H68.252V7.09254C68.252 3.04312 70.2771 0 75.1337 0C76.5282 0 77.6135 0.242472 78.6988 0.80624V6.32268C78.0682 5.94077 77.3346 5.72859 76.5646 5.72859C75.17 5.72859 74.5395 6.4621 74.5395 7.51082Z" fill="white"/>
<path d="M80.7969 0.424347H87.0843V25.5757H80.7969V0.424347Z" fill="white"/>
<path d="M89.564 16.6644C89.564 11.3541 93.7233 7.34106 99.2407 7.34106C104.758 7.34106 108.917 11.3602 108.917 16.6644C108.917 21.9687 104.758 25.9878 99.2407 25.9878C93.7233 25.9878 89.564 21.9687 89.564 16.6644ZM102.454 16.6644C102.454 14.8155 101.09 13.4152 99.2407 13.4152C97.3914 13.4152 96.0273 14.8095 96.0273 16.6644C96.0273 18.5194 97.3914 19.9137 99.2407 19.9137C101.09 19.9137 102.454 18.5134 102.454 16.6644Z" fill="white"/>
<path d="M55.5133 15.731H48.5892V25.5696H55.5133V15.731Z" fill="white"/>
<path d="M55.5739 7.7594L53.8944 10.6692C53.3366 11.633 52.4211 11.7361 52.0512 11.7361C51.6814 11.7361 50.7598 11.633 50.208 10.6692L48.5286 7.7594H40.5374L44.2176 14.1306C45.8547 16.9615 48.7832 18.6589 52.0573 18.6589C55.3314 18.6589 58.2599 16.9676 59.8969 14.1306L63.5773 7.7594H55.586H55.5739Z" fill="white"/>
<path d="M135.862 7.7594H142.15L139.949 13.4092L130.296 13.2091L130.666 11.7906C131.278 9.42039 133.419 7.76547 135.868 7.76547L135.862 7.7594Z" fill="white"/>
<path d="M144.587 7.7594L142.41 13.3546L145.63 13.4092L147.831 7.7594H144.587Z" fill="#E83664"/>
</svg>
