<svg width="227" height="30" viewBox="0 0 227 30" fill="none" xmlns="http://www.w3.org/2000/svg">
<path d="M158.376 9.00195L152.56 26.0556C151.88 28.0538 150.007 29.3928 147.89 29.3928C145.635 29.3928 143.671 27.8664 143.116 25.681L141.222 18.2781L139.327 25.681C138.772 27.8664 136.801 29.3928 134.553 29.3928C132.443 29.3928 130.57 28.0538 129.883 26.0556L124.068 9.00195H132.103L134.865 19.5963L137.662 9.00195H144.941L147.779 19.6726L149.257 13.9696C150.014 11.0417 152.651 9.00195 155.676 9.00195H158.382H158.376Z" fill="white"/>
<path d="M21.956 9.00194V29.3928H14.7599V28.1162C13.3582 29.2332 11.6442 29.8785 9.63871 29.8785C4.12196 29.8785 0 25.2785 0 19.2078C0 13.137 4.11502 8.53711 9.63871 8.53711C11.6372 8.53711 13.3582 9.17539 14.7599 10.2994V9.02276H21.956V9.00194ZM14.7599 19.1939C14.7599 17.0778 13.1985 15.4751 11.0821 15.4751C8.96556 15.4751 7.40423 17.0709 7.40423 19.1939C7.40423 21.3169 8.96556 22.9127 11.0821 22.9127C13.1985 22.9127 14.7599 21.31 14.7599 19.1939Z" fill="white"/>
<path d="M46.1948 15.9955V29.3859H38.9988V18.4308C38.9988 16.6338 37.9162 15.4752 36.2022 15.4752C34.4882 15.4752 33.1628 16.6755 33.1628 18.514V29.3859H25.9667V8.99506H33.1628V10.5145C34.6825 9.19627 36.5214 8.51636 38.6795 8.51636C43.197 8.51636 46.1948 11.472 46.1948 15.9955Z" fill="white"/>
<path d="M85.1174 8.71754V8.99505H89.3574V15.5515H85.1174V29.3859H77.9214V15.5515H75.2012V8.99505H77.9214V8.23881C77.9214 3.60421 80.2391 0.121338 85.7975 0.121338C87.3935 0.121338 88.6357 0.398849 89.8778 1.04409V7.35769C89.1561 6.92059 88.3165 6.67776 87.4352 6.67776C85.8391 6.67776 85.1174 7.51726 85.1174 8.71754Z" fill="white"/>
<path d="M92.2792 0.606934H99.4752V29.3928H92.2792V0.606934Z" fill="white"/>
<path d="M102.313 19.1939C102.313 13.1162 107.073 8.52319 113.388 8.52319C119.703 8.52319 124.463 13.1231 124.463 19.1939C124.463 25.2646 119.703 29.8646 113.388 29.8646C107.073 29.8646 102.313 25.2646 102.313 19.1939ZM117.066 19.1939C117.066 17.0778 115.505 15.4751 113.388 15.4751C111.272 15.4751 109.71 17.0708 109.71 19.1939C109.71 21.3169 111.272 22.9127 113.388 22.9127C115.505 22.9127 117.066 21.31 117.066 19.1939Z" fill="white"/>
<path d="M63.342 18.1255H55.4173V29.3859H63.342V18.1255Z" fill="white"/>
<path d="M63.4113 9.00195L61.4891 12.3322C60.8507 13.4354 59.8029 13.5533 59.3796 13.5533C58.9563 13.5533 57.9015 13.4354 57.27 12.3322L55.3478 9.00195H46.2018L50.414 16.2938C52.2876 19.5339 55.6393 21.4765 59.3865 21.4765C63.1337 21.4765 66.4854 19.5408 68.359 16.2938L72.5712 9.00195H63.4252H63.4113Z" fill="white"/>
<path d="M155.302 9.00195H162.498L159.979 15.4682L148.931 15.2392L149.355 13.6157C150.056 10.903 152.505 9.0089 155.309 9.0089L155.302 9.00195Z" fill="white"/>
<path d="M165.287 9.00195L162.796 15.4058L166.481 15.4682L169 9.00195H165.287Z" fill="#E83664"/>
<rect x="177.5" y="3.5" width="49" height="23" rx="7.5" stroke="#9E9FA8"/>
<path d="M186.852 19V10.6H190.488C191.04 10.6 191.52 10.692 191.928 10.876C192.336 11.06 192.652 11.32 192.876 11.656C193.1 11.984 193.212 12.372 193.212 12.82C193.212 13.228 193.108 13.588 192.9 13.9C192.692 14.212 192.4 14.46 192.024 14.644C192.496 14.812 192.864 15.068 193.128 15.412C193.4 15.748 193.536 16.144 193.536 16.6C193.536 17.088 193.416 17.512 193.176 17.872C192.936 18.232 192.6 18.512 192.168 18.712C191.736 18.904 191.228 19 190.644 19H186.852ZM188.112 14.164H190.416C190.888 14.164 191.264 14.052 191.544 13.828C191.824 13.604 191.964 13.3 191.964 12.916C191.964 12.532 191.824 12.228 191.544 12.004C191.264 11.78 190.888 11.668 190.416 11.668H188.112V14.164ZM188.112 17.932H190.548C191.076 17.932 191.492 17.808 191.796 17.56C192.108 17.312 192.264 16.976 192.264 16.552C192.264 16.136 192.108 15.804 191.796 15.556C191.492 15.3 191.076 15.172 190.548 15.172H188.112V17.932ZM194.903 19V10.6H201.095V11.704H196.163V14.224H199.403V15.292H196.163V17.896H201.143V19H194.903ZM204.742 19V11.716H201.79V10.6H208.954V11.716H206.002V19H204.742ZM209.168 19L212.636 10.6H214.124L217.556 19H216.188L215.216 16.54H211.46L210.476 19H209.168ZM211.868 15.496H214.808L213.344 11.8L211.868 15.496Z" fill="#9E9FA8"/>
</svg>
