<svg width="18" height="16" viewBox="0 0 18 16" fill="none" xmlns="http://www.w3.org/2000/svg">
<path d="M5.66262 15.3125C12.4534 15.3125 16.1687 9.68509 16.1687 4.80646C16.1687 4.64825 16.1652 4.48653 16.1582 4.32833C16.8809 3.80566 17.5046 3.15825 18 2.41653C17.3269 2.71601 16.6122 2.9116 15.8804 2.99661C16.651 2.53474 17.2279 1.80917 17.5043 0.954386C16.7794 1.38398 15.9867 1.68702 15.1601 1.85052C14.6031 1.25873 13.8667 0.866898 13.0648 0.735599C12.2628 0.6043 11.4399 0.740849 10.7233 1.12413C10.0067 1.50742 9.43635 2.11609 9.10039 2.85604C8.76442 3.596 8.68157 4.42602 8.86465 5.21778C7.39687 5.14413 5.96095 4.76284 4.64999 4.09863C3.33902 3.43443 2.18227 2.50214 1.25473 1.3622C0.7833 2.17499 0.639042 3.1368 0.851273 4.05213C1.0635 4.96746 1.6163 5.76765 2.3973 6.29005C1.81097 6.27144 1.23748 6.11357 0.724219 5.8295V5.87521C0.723693 6.72817 1.01857 7.555 1.55873 8.21514C2.09889 8.87528 2.85099 9.32798 3.68719 9.4963C3.14404 9.64491 2.57399 9.66656 2.02113 9.55958C2.25709 10.2931 2.71618 10.9347 3.33433 11.3948C3.95248 11.8549 4.69884 12.1105 5.46926 12.126C4.16132 13.1534 2.54563 13.7107 0.882422 13.708C0.587465 13.7076 0.292799 13.6895 0 13.6539C1.68964 14.7379 3.65515 15.3136 5.66262 15.3125Z" fill="#5F6271"/>
</svg>
